<svg width="27" height="26" viewBox="0 0 27 26" fill="none" xmlns="http://www.w3.org/2000/svg">
<path fill-rule="evenodd" clip-rule="evenodd" d="M23.9879 11.1514H21.7226C21.8877 11.7428 21.9852 12.3607 21.9852 12.9996C21.9852 17.0819 18.4009 20.3905 13.9792 20.3905C9.5577 20.3905 5.97321 17.0819 5.97321 12.9996C5.97321 12.3607 6.07113 11.7428 6.23619 11.1514H3.97073V21.3142C3.97073 21.8237 4.419 22.2373 4.97254 22.2373H22.9861C23.1175 22.2374 23.2477 22.2136 23.3692 22.1673C23.4906 22.1209 23.601 22.053 23.6941 21.9673C23.7871 21.8815 23.8609 21.7798 23.9113 21.6677C23.9617 21.5557 23.9877 21.4355 23.9879 21.3142V11.1514ZM23.9879 4.68507C23.9878 4.56369 23.9618 4.44351 23.9115 4.3314C23.8611 4.21929 23.7873 4.11744 23.6942 4.03166C23.6012 3.94588 23.4908 3.87786 23.3693 3.83149C23.2478 3.78511 23.1175 3.76128 22.9861 3.76137H19.9843C19.7189 3.76137 19.4643 3.85868 19.2766 4.0319C19.089 4.20512 18.9835 4.44007 18.9834 4.68507V7.45701C18.9834 7.57833 19.0093 7.69847 19.0596 7.81055C19.1099 7.92263 19.1836 8.02447 19.2766 8.11024C19.3695 8.19602 19.4799 8.26405 19.6013 8.31046C19.7227 8.35687 19.8529 8.38074 19.9843 8.38071H22.9861C23.1175 8.3808 23.2478 8.35697 23.3693 8.31059C23.4908 8.26421 23.6012 8.1962 23.6942 8.11042C23.7873 8.02464 23.8611 7.92279 23.9115 7.81068C23.9618 7.69857 23.9878 7.57839 23.9879 7.45701V4.68507ZM13.979 8.38071C11.2151 8.38071 8.97496 10.4484 8.97496 12.9996C8.97496 15.5505 11.2151 17.6192 13.979 17.6192C16.7428 17.6192 18.9834 15.5505 18.9834 12.9996C18.9834 10.4484 16.7428 8.38071 13.979 8.38071ZM23.9879 25.0096H3.9705C2.31285 25.0096 0.96875 23.7685 0.96875 22.2371V3.76137C0.96875 2.23099 2.31285 0.990479 3.9705 0.990479H23.9879C25.6458 0.990479 26.9896 2.23099 26.9896 3.76137V22.2371C26.9894 23.7685 25.6458 25.0096 23.9879 25.0096Z" fill="white"/>
</svg>
