<svg width="29" height="25" viewBox="0 0 29 25" fill="none" xmlns="http://www.w3.org/2000/svg">
<path d="M28.9912 3.80011C27.9602 4.28246 26.8521 4.60832 25.6893 4.75491C26.8762 4.00449 27.7879 2.8162 28.2171 1.40019C27.1061 2.09519 25.8758 2.5997 24.5662 2.87162C23.5176 1.69308 22.0234 0.956848 20.3698 0.956848C17.1949 0.956848 14.6206 3.67169 14.6206 7.02036C14.6206 7.49562 14.6714 7.95846 14.7695 8.40225C9.99142 8.1494 5.75527 5.73528 2.91968 2.06667C2.42481 2.96221 2.14122 4.00375 2.14122 5.11505C2.14122 7.21883 3.15619 9.07478 4.69883 10.1621C3.75643 10.1307 2.86994 9.85786 2.09484 9.40374C2.09419 9.42901 2.09419 9.45443 2.09419 9.47999C2.09419 12.4178 4.07594 14.8685 6.70598 15.4259C6.22357 15.5645 5.71567 15.6385 5.19137 15.6385C4.82091 15.6385 4.46083 15.6004 4.10971 15.5298C4.84137 17.9387 6.96449 19.6918 9.48034 19.7406C7.51275 21.367 5.03388 22.3365 2.34023 22.3365C1.87618 22.3365 1.41857 22.3076 0.968811 22.2516C3.51311 23.9722 6.53504 24.9761 9.78172 24.9761C20.3564 24.9761 26.1392 15.7365 26.1392 7.72334C26.1392 7.46045 26.1336 7.19902 26.1226 6.93879C27.2457 6.08403 28.2203 5.01618 28.9911 3.80011H28.9912Z" fill="white"/>
</svg>
