<svg width="35" height="34" viewBox="0 0 35 34" fill="none" xmlns="http://www.w3.org/2000/svg">
<path d="M34.7515 17.9005C34.7515 26.1366 27.32 32.8134 18.1508 32.8134C15.241 32.8134 12.5077 32.1395 10.1283 30.9595L0.938156 33.6021L3.93391 25.5985C2.42335 23.3523 1.5534 20.7147 1.5534 17.8995C1.55451 9.66331 8.9838 2.98654 18.153 2.98654C27.3211 2.98854 34.7515 9.66431 34.7515 17.9005ZM18.1497 5.36454C10.4547 5.36454 4.19522 10.9891 4.19522 17.9035C4.19522 20.6468 5.18315 23.1866 6.85358 25.2531L5.11148 29.9083L10.4723 28.3659C12.6775 29.6757 15.316 30.4384 18.1497 30.4384C25.8447 30.4384 32.1063 24.8148 32.1063 17.9005C32.1085 10.9891 25.8458 5.36454 18.1497 5.36454ZM26.5338 21.3357C26.4302 21.1849 26.1589 21.0931 25.7532 20.9094C25.3485 20.7257 23.3451 19.8422 22.9735 19.7224C22.5987 19.5996 22.3274 19.5377 22.0562 19.9041C21.7882 20.2705 21.0076 21.0931 20.7683 21.3387C20.5313 21.5833 20.2942 21.6142 19.8874 21.4335C19.4805 21.2478 18.1684 20.8645 16.6138 19.6196C15.4042 18.6492 14.5872 17.4542 14.3512 17.0878C14.112 16.7224 14.327 16.5248 14.5288 16.3431C14.7107 16.1784 14.9356 15.9158 15.1396 15.7012C15.3436 15.4885 15.4108 15.3378 15.5464 15.0932C15.6799 14.8486 15.6126 14.636 15.5123 14.4513C15.4108 14.2676 14.5982 12.4706 14.2575 11.7388C13.919 11.0081 13.5805 11.1288 13.3424 11.1288C13.1053 11.1288 12.8341 11.0989 12.5628 11.0989C12.2916 11.0989 11.8505 11.1878 11.479 11.5541C11.1074 11.9205 10.0555 12.804 10.0555 14.603C10.0555 16.404 11.512 18.1401 11.716 18.3837C11.9211 18.6262 14.5321 22.4388 18.6679 23.9024C22.8059 25.3649 22.8059 24.8767 23.5513 24.8148C24.2989 24.7529 25.9594 23.9313 26.2968 23.0788C26.6364 22.2222 26.6364 21.4884 26.5338 21.3357Z" fill="#FFF8F8"/>
</svg>
