<svg width="29" height="23" viewBox="0 0 29 23" fill="none" xmlns="http://www.w3.org/2000/svg">
<path d="M28.414 3.46915C28.0909 2.12219 27.1445 1.06017 25.9442 0.697527C23.7513 0.0240479 14.9799 0.0240479 14.9799 0.0240479C14.9799 0.0240479 6.20851 0.0240479 4.01566 0.671624C2.83844 1.03427 1.86897 2.12219 1.54582 3.46915C0.96875 5.92994 0.96875 11.0328 0.96875 11.0328C0.96875 11.0328 0.96875 16.1616 1.54582 18.5965C1.86897 19.9435 2.81536 21.0055 4.01566 21.3681C6.2316 22.0416 14.9799 22.0416 14.9799 22.0416C14.9799 22.0416 23.7513 22.0416 25.9442 21.3941C27.1445 21.0314 28.0909 19.9694 28.414 18.6224C28.9911 16.1616 28.9911 11.0587 28.9911 11.0587C28.9911 11.0587 29.0142 5.92994 28.414 3.46915Z" fill="white"/>
<path d="M19.481 11.0328L12.187 6.31848V15.7472L19.481 11.0328Z" fill="#1F082F"/>
</svg>
